<svg width="131" height="18" viewBox="0 0 131 18" fill="none" xmlns="http://www.w3.org/2000/svg">
<g clip-path="url(#clip0_22_198)">
<path d="M4.51089 6.51256C5.8419 6.51242 7.14517 6.89312 8.26682 7.6097C9.38848 8.32628 10.2817 9.34883 10.841 10.5566C11.4003 11.7644 11.6024 13.107 11.4233 14.426C11.2443 15.7449 10.6916 16.985 9.83058 18C10.4837 17.9392 11.1281 17.8068 11.7523 17.6052C12.8771 16.0375 13.4083 14.1212 13.2511 12.1981C13.0939 10.275 12.2585 8.47035 10.894 7.10612C9.52956 5.7419 7.72474 4.90686 5.80164 4.75002C3.87854 4.59319 1.96226 5.12475 0.394765 6.24986C0.193808 6.87274 0.0614359 7.51569 0 8.16729C1.25912 7.09703 2.85836 6.51038 4.51089 6.51256Z" fill="white"/>
<path d="M4.02759 11.6416C4.4004 11.5536 4.79096 11.5781 5.14986 11.712C5.50875 11.8459 5.81987 12.0833 6.04386 12.3941C6.26785 12.7048 6.39465 13.075 6.40823 13.4579C6.4218 13.8407 6.32154 14.219 6.12012 14.5448C5.9187 14.8706 5.62517 15.1294 5.27666 15.2885C4.92815 15.4475 4.54031 15.4996 4.16219 15.4381C3.78407 15.3767 3.43267 15.2045 3.15241 14.9434C2.87216 14.6822 2.67564 14.3438 2.58773 13.971C2.52927 13.7235 2.52015 13.4669 2.56088 13.2159C2.60161 12.9649 2.6914 12.7243 2.82511 12.508C2.95882 12.2917 3.13383 12.1039 3.34016 11.9552C3.54648 11.8065 3.78007 11.7 4.02759 11.6416Z" fill="white"/>
<path d="M10.0547 13.1886C10.0549 12.0164 9.66248 10.878 8.94002 9.95503C8.21756 9.03203 7.20674 8.37763 6.06888 8.09629C4.93102 7.81495 3.73171 7.92287 2.66236 8.40284C1.59301 8.88281 0.715253 9.70716 0.169189 10.7443C0.291784 11.3672 0.480355 11.9753 0.731712 12.5582C0.906167 11.9054 1.24945 11.31 1.72704 10.8319C2.20464 10.3538 2.79969 10.0099 3.45237 9.83479C4.10505 9.65967 4.79233 9.6595 5.44509 9.83429C6.09786 10.0091 6.69309 10.3527 7.17093 10.8305C7.64876 11.3083 7.99235 11.9036 8.16714 12.5563C8.34193 13.2091 8.34175 13.8964 8.16663 14.5491C7.99151 15.2017 7.64762 15.7968 7.16954 16.2744C6.69146 16.752 6.09605 17.0953 5.44319 17.2697C6.02615 17.5211 6.63422 17.7096 7.25711 17.8322C8.10235 17.3873 8.81 16.7199 9.30366 15.9021C9.79733 15.0844 10.0583 14.1473 10.0583 13.1921" fill="white"/>
<path d="M17.9993 8.99966C17.9991 7.11027 17.4043 5.26888 16.2991 3.73641C15.194 2.20394 13.6346 1.05812 11.842 0.461304C10.0493 -0.135508 8.11433 -0.153038 6.31116 0.411197C4.508 0.975432 2.92812 2.09282 1.79541 3.60501C3.55307 2.97708 5.45289 2.86109 7.27389 3.27053C9.09489 3.67997 10.7622 4.59802 12.0819 5.91788C13.4016 7.23774 14.3195 8.90517 14.7287 10.7262C15.138 12.5473 15.0218 14.4471 14.3936 16.2047C15.5138 15.3674 16.423 14.2802 17.049 13.0296C17.6749 11.779 18.0004 10.3996 17.9993 9.00108" fill="white"/>
<path d="M25.9745 15.1617H29.4539C30.2025 15.2076 30.9394 14.9594 31.5077 14.47C31.7643 14.2074 31.9626 13.8936 32.0898 13.5492C32.217 13.2048 32.2702 12.8375 32.2458 12.4711C32.2685 12.0834 32.205 11.6954 32.0598 11.3351C31.9147 10.9748 31.6915 10.6511 31.4063 10.3874C30.7461 9.86004 29.9141 9.5956 29.0706 9.64497H25.9745V15.1617ZM25.9745 3.11029V8.47353H28.4224C29.3566 8.55249 30.285 8.26529 31.0115 7.67258C31.2848 7.40941 31.4998 7.09186 31.6427 6.74044C31.7855 6.38901 31.8531 6.01153 31.8411 5.63236C31.8469 5.29282 31.7784 4.95611 31.6406 4.64576C31.5027 4.33541 31.2988 4.0589 31.043 3.83557C30.3697 3.3045 29.5217 3.0452 28.6665 3.10886L25.9745 3.11029ZM24.7231 1.93313H28.5259C29.7217 1.87816 30.9011 2.22827 31.8732 2.92683C32.2925 3.24727 32.6283 3.66419 32.852 4.14217C33.0757 4.62016 33.1807 5.14508 33.1581 5.67234C33.1803 6.45738 32.9421 7.2277 32.4807 7.86318C32.0598 8.44826 31.436 8.85548 30.731 9.00535C31.499 9.10489 32.2059 9.47644 32.7234 10.0526C33.3124 10.7322 33.6132 11.6147 33.5622 12.5126C33.5855 13.0236 33.5033 13.534 33.3207 14.0119C33.138 14.4898 32.8589 14.9249 32.5007 15.2902C32.0884 15.6588 31.6066 15.9413 31.0837 16.1211C30.5607 16.301 30.0071 16.3745 29.4553 16.3374H24.7231V1.93313Z" fill="white"/>
<path d="M37.6047 1.93243V16.331H44.8668V15.1174H38.859V1.93243H37.6047Z" fill="white"/>
<path d="M50.0652 1.9317H48.8116V16.3346H50.0652V1.9317Z" fill="white"/>
<path d="M54.9187 16.331V1.93243H56.6384L60.1177 8.02167L63.9619 14.7741C63.9343 13.2926 63.9207 11.0487 63.9212 8.04237V1.93243H65.1776V16.331H63.4558L59.9964 10.2839L56.133 3.49365C56.1592 5.0313 56.1725 7.28211 56.173 10.2461V16.331H54.9187Z" fill="white"/>
<path d="M71.1848 15.116H73.9161C74.7667 15.1333 75.6103 14.9583 76.3839 14.6042C77.06 14.2939 77.6452 13.8153 78.0836 13.2143C78.5015 12.6305 78.8195 11.9813 79.0244 11.2933C79.2375 10.5646 79.3431 9.80876 79.3378 9.04961C79.3746 7.51065 78.8211 6.01595 77.7909 4.8721C77.2948 4.31182 76.6816 3.86742 75.9948 3.57037C75.3079 3.27333 74.5641 3.13088 73.8161 3.15312H71.1855L71.1848 15.116ZM69.9284 1.93242H73.8118C74.7227 1.90169 75.6301 2.06065 76.4763 2.39921C77.3225 2.73777 78.0891 3.24854 78.7275 3.89911C79.3763 4.58527 79.8806 5.39471 80.2107 6.27944C80.5409 7.16417 80.6899 8.10618 80.6492 9.04961C80.6642 10.2718 80.423 11.4835 79.941 12.6068C79.4557 13.6979 78.6651 14.6254 77.6645 15.2773C76.5501 16.0023 75.2415 16.3713 73.9125 16.3353H69.927L69.9284 1.93242Z" fill="white"/>
<path d="M88.6465 16.3339C87.5371 16.3422 86.4533 16.0007 85.5491 15.3579C84.6448 14.7151 83.9662 13.8037 83.6095 12.7531L85.7939 11.9572C86.0814 12.5791 86.5238 13.1167 87.0789 13.5184C87.5904 13.898 88.2101 14.1037 88.8471 14.1052C89.388 14.1317 89.9203 13.9621 90.3462 13.6276C90.6852 13.3209 90.8886 12.8921 90.9116 12.4355C90.9346 11.9789 90.7754 11.5319 90.469 11.1926C90.3725 11.0865 90.2635 10.9925 90.1442 10.9128C89.4789 10.4362 88.7602 10.0389 88.0026 9.72922C87.4229 9.47794 86.958 9.25902 86.6077 9.07247C86.1931 8.8458 85.797 8.58657 85.4234 8.29722C85.0064 7.99152 84.6701 7.58899 84.4433 7.12434C84.2221 6.65169 84.1112 6.13491 84.1192 5.6131C84.1132 5.11542 84.2181 4.62266 84.4261 4.17052C84.6342 3.71837 84.9402 3.31818 85.3221 2.99894C86.2067 2.26057 87.3363 1.88101 88.4873 1.93529C89.4603 1.915 90.4141 2.20806 91.2078 2.77122C91.9509 3.28404 92.4968 4.03496 92.7555 4.89995L90.5903 5.61381C90.4053 5.17425 90.0922 4.80063 89.6917 4.54163C89.2912 4.28263 88.822 4.15028 88.3453 4.16182C87.881 4.14251 87.4241 4.28312 87.051 4.56015C86.8858 4.68906 86.7537 4.85553 86.6656 5.04573C86.5776 5.23593 86.5362 5.44439 86.5449 5.65379C86.545 5.75745 86.5587 5.86064 86.5856 5.96075C86.6135 6.06241 86.6621 6.1572 86.7284 6.23915C86.7955 6.32553 86.8597 6.40477 86.9204 6.4783C87.0043 6.57012 87.1004 6.6501 87.2059 6.71601C87.3337 6.80311 87.4422 6.87235 87.53 6.92446C87.6178 6.97657 87.7492 7.04653 87.9248 7.13362C88.1004 7.22071 88.2353 7.28282 88.3295 7.32208C88.4238 7.36134 88.5794 7.43059 88.795 7.53124C89.0106 7.6319 89.1669 7.70043 89.2604 7.7404C89.7443 7.95082 90.2168 8.18648 90.676 8.44641C91.113 8.70625 91.5319 8.99556 91.9296 9.31233C92.3721 9.65128 92.7317 10.0866 92.9811 10.5851C93.2264 11.0874 93.3509 11.6402 93.3444 12.1992C93.3683 12.7747 93.2573 13.3479 93.0203 13.8729C92.7833 14.3979 92.4269 14.8603 91.9795 15.2231C91.0374 15.9768 89.8582 16.3715 88.6522 16.3367" fill="white"/>
<path d="M96.7781 1.93243V4.09543H99.7328V14.1737H96.7809V16.331H105.115V14.1709H102.142V4.09543H105.115V1.93243H96.7781Z" fill="white"/>
<path d="M111.105 14.0467H112.42C113.05 14.0608 113.674 13.9134 114.231 13.6183C114.73 13.3519 115.146 12.953 115.434 12.4655C115.718 11.9815 115.929 11.4586 116.062 10.9135C116.198 10.3484 116.266 9.76883 116.264 9.18741C116.298 7.97948 115.982 6.7875 115.354 5.75517C115.072 5.29567 114.671 4.92065 114.194 4.66945C113.716 4.41824 113.18 4.30011 112.642 4.32745H111.104L111.105 14.0467ZM108.699 16.3353V2.0381H112.258C113.105 2.02643 113.948 2.16467 114.747 2.44642C115.428 2.68356 116.057 3.05141 116.598 3.52935C117.097 3.98942 117.513 4.53175 117.828 5.13268C118.155 5.74408 118.396 6.39739 118.546 7.07438C118.835 8.43023 118.842 9.8312 118.566 11.1898C118.424 11.8603 118.193 12.5086 117.878 13.1172C117.567 13.734 117.153 14.2933 116.654 14.7712C116.108 15.2748 115.464 15.6611 114.762 15.9063C113.932 16.2028 113.054 16.3479 112.172 16.3346L108.699 16.3353Z" fill="white"/>
<path d="M121.173 1.93243V16.331H130.68V14.0095H123.579V10.059H127.934V7.73612H123.579V4.25819H130.254V1.93243H121.173Z" fill="white"/>
</g>
<defs>
<clipPath id="clip0_22_198">
<rect width="130.679" height="18" fill="white"/>
</clipPath>
</defs>
</svg>
