<svg width="133" height="86" viewBox="0 0 133 86" fill="none" xmlns="http://www.w3.org/2000/svg">
<path d="M1.56216 84.5206H5.90555C6.84004 84.578 7.75998 84.2681 8.46934 83.6571C8.78967 83.3293 9.03729 82.9377 9.19606 82.5078C9.35483 82.0778 9.42118 81.6192 9.39078 81.1619C9.4191 80.6779 9.33981 80.1935 9.15861 79.7438C8.97741 79.294 8.69879 78.89 8.3428 78.5607C7.51862 77.9024 6.48003 77.5723 5.42701 77.6339H1.56216V84.5206ZM1.56216 69.4765V76.1716H4.61786C5.78415 76.2702 6.9431 75.9116 7.85001 75.1717C8.1911 74.8432 8.45949 74.4468 8.63786 74.0081C8.81622 73.5694 8.90059 73.0982 8.88551 72.6249C8.89276 72.201 8.80735 71.7807 8.63527 71.3933C8.46318 71.0058 8.20857 70.6607 7.88922 70.3819C7.04871 69.7189 5.99017 69.3952 4.92263 69.4747L1.56216 69.4765ZM0 68.007H4.74708C6.23984 67.9384 7.71209 68.3754 8.92561 69.2475C9.44906 69.6475 9.86823 70.1679 10.1475 70.7646C10.4267 71.3613 10.5578 72.0166 10.5296 72.6748C10.5574 73.6548 10.26 74.6164 9.68396 75.4097C9.15857 76.14 8.37984 76.6484 7.49979 76.8355C8.45852 76.9597 9.34095 77.4236 9.98695 78.1428C10.7222 78.9912 11.0978 80.0928 11.034 81.2136C11.0632 81.8516 10.9605 82.4888 10.7325 83.0853C10.5046 83.6819 10.1561 84.2251 9.70892 84.681C9.19428 85.1412 8.59289 85.4939 7.94006 85.7184C7.28723 85.9428 6.59613 86.0346 5.90733 85.9883H0V68.007Z" fill="white"/>
<path d="M16.0806 68.0061V85.9803H25.1461V84.4654H17.6463V68.0061H16.0806Z" fill="white"/>
<path d="M31.6354 68.0052H30.0706V85.9848H31.6354V68.0052Z" fill="white"/>
<path d="M37.6941 85.9803V68.0061H39.8408L44.1842 75.6075L48.983 84.0367C48.9485 82.1873 48.9316 79.3862 48.9322 75.6333V68.0061H50.5006V85.9803H48.3512L44.0327 78.4315L39.2099 69.955C39.2426 71.8745 39.2592 74.6843 39.2598 78.3843V85.9803H37.6941Z" fill="white"/>
<path d="M57.9996 84.4636H61.4091C62.471 84.4852 63.524 84.2668 64.4898 83.8246C65.3338 83.4373 66.0644 82.8399 66.6116 82.0896C67.1333 81.3609 67.5302 80.5505 67.7861 79.6916C68.052 78.7819 68.1838 77.8384 68.1773 76.8907C68.2232 74.9696 67.5322 73.1037 66.2462 71.6758C65.6269 70.9764 64.8615 70.4216 64.004 70.0508C63.1466 69.68 62.2181 69.5022 61.2844 69.5299H58.0005L57.9996 84.4636ZM56.4312 68.0061H61.279C62.4161 67.9677 63.5488 68.1662 64.6052 68.5888C65.6615 69.0114 66.6185 69.6491 67.4154 70.4612C68.2252 71.3177 68.8549 72.3282 69.267 73.4326C69.679 74.5371 69.8652 75.713 69.8143 76.8907C69.833 78.4164 69.5319 79.9291 68.9303 81.3312C68.3244 82.6933 67.3375 83.8511 66.0885 84.665C64.6972 85.57 63.0637 86.0306 61.4046 85.9856H56.4294L56.4312 68.0061Z" fill="white"/>
<path d="M79.7976 85.9839C78.4127 85.9943 77.0598 85.568 75.931 84.7655C74.8022 83.9631 73.955 82.8253 73.5098 81.5139L76.2366 80.5203C76.5955 81.2967 77.1478 81.9678 77.8407 82.4692C78.4792 82.9431 79.2529 83.1999 80.048 83.2017C80.7233 83.2349 81.3878 83.0232 81.9194 82.6056C82.3426 82.2227 82.5965 81.6874 82.6252 81.1175C82.654 80.5475 82.4552 79.9894 82.0727 79.5659C81.9523 79.4334 81.8161 79.3161 81.6672 79.2166C80.8367 78.6216 79.9395 78.1257 78.9938 77.7391C78.2702 77.4254 77.6898 77.1521 77.2525 76.9192C76.7349 76.6363 76.2405 76.3127 75.7741 75.9515C75.2536 75.5699 74.8337 75.0674 74.5506 74.4873C74.2744 73.8973 74.1361 73.2522 74.146 72.6008C74.1386 71.9795 74.2695 71.3644 74.5292 70.8C74.7889 70.2356 75.1709 69.736 75.6476 69.3375C76.752 68.4157 78.162 67.9419 79.5989 68.0097C80.8135 67.9844 82.0042 68.3502 82.995 69.0532C83.9226 69.6934 84.6041 70.6308 84.927 71.7106L82.2242 72.6017C81.9932 72.053 81.6023 71.5866 81.1024 71.2633C80.6024 70.9399 80.0167 70.7747 79.4216 70.7891C78.842 70.765 78.2717 70.9406 77.8059 71.2864C77.5997 71.4473 77.4347 71.6551 77.3248 71.8925C77.2149 72.13 77.1633 72.3902 77.1741 72.6516C77.1743 72.781 77.1913 72.9098 77.2249 73.0348C77.2597 73.1617 77.3204 73.28 77.4031 73.3823C77.4869 73.4902 77.5671 73.5891 77.6428 73.6809C77.7477 73.7955 77.8676 73.8953 77.9993 73.9776C78.1588 74.0863 78.2943 74.1728 78.4039 74.2378C78.5135 74.3029 78.6775 74.3902 78.8967 74.4989C79.1159 74.6076 79.2843 74.6852 79.4019 74.7342C79.5196 74.7832 79.7139 74.8696 79.983 74.9953C80.2521 75.1209 80.4473 75.2065 80.564 75.2564C81.168 75.5191 81.7579 75.8132 82.3311 76.1377C82.8767 76.4621 83.3995 76.8232 83.896 77.2187C84.4484 77.6418 84.8973 78.1852 85.2086 78.8076C85.5149 79.4346 85.6702 80.1246 85.6622 80.8224C85.6919 81.5409 85.5534 82.2563 85.2576 82.9117C84.9617 83.5671 84.5168 84.1443 83.9583 84.5973C82.7823 85.5382 81.3103 86.0308 79.8048 85.9874" fill="white"/>
<path d="M89.9485 68.0061V70.7062H93.6369V83.2873H89.9521V85.9803H100.356V83.2837H96.6445V70.7062H100.356V68.0061H89.9485Z" fill="white"/>
<path d="M107.834 83.1287H109.475C110.262 83.1464 111.04 82.9623 111.735 82.594C112.358 82.2614 112.878 81.7634 113.237 81.1548C113.592 80.5506 113.855 79.898 114.021 79.2175C114.191 78.512 114.276 77.7885 114.274 77.0627C114.316 75.5548 113.922 74.0668 113.138 72.7781C112.785 72.2045 112.285 71.7364 111.689 71.4228C111.093 71.1092 110.424 70.9617 109.751 70.9959H107.832L107.834 83.1287ZM104.83 85.9856V68.138H109.273C110.33 68.1234 111.382 68.296 112.379 68.6477C113.23 68.9438 114.015 69.403 114.69 69.9996C115.313 70.5739 115.832 71.2509 116.225 72.0011C116.634 72.7643 116.935 73.5798 117.122 74.425C117.483 76.1175 117.492 77.8664 117.147 79.5623C116.97 80.3994 116.681 81.2087 116.288 81.9684C115.9 82.7384 115.383 83.4366 114.76 84.0332C114.078 84.6618 113.275 85.1441 112.399 85.4501C111.362 85.8202 110.267 86.0013 109.166 85.9848L104.83 85.9856Z" fill="white"/>
<path d="M120.401 68.0061V85.9803H132.269V83.0823H123.405V78.1508H128.841V75.251H123.405V70.9094H131.737V68.0061H120.401Z" fill="white"/>
<path d="M52.0344 20.2606C56.1755 20.2602 60.2303 21.4446 63.72 23.674C67.2098 25.9035 69.9887 29.0849 71.7289 32.8426C73.4691 36.6004 74.0977 40.7775 73.5407 44.881C72.9837 48.9845 71.2642 52.8429 68.5852 56.0007C70.6172 55.8115 72.6222 55.3997 74.5641 54.7725C78.0637 49.895 79.7164 43.9327 79.2273 37.9496C78.7382 31.9664 76.1392 26.3517 71.8939 22.1073C67.6487 17.8629 62.0335 15.2649 56.0503 14.7769C50.067 14.289 44.1051 15.9428 39.2282 19.4433C38.603 21.3812 38.1911 23.3815 38 25.4088C41.9174 22.079 46.893 20.2538 52.0344 20.2606Z" fill="white"/>
<path d="M50.5308 36.2183C51.6907 35.9444 52.9058 36.0206 54.0224 36.4373C55.139 36.854 56.107 37.5924 56.8039 38.5593C57.5008 39.5262 57.8953 40.678 57.9375 41.869C57.9797 43.0601 57.6678 44.237 57.0411 45.2508C56.4145 46.2646 55.5012 47.0697 54.4169 47.5644C53.3326 48.0592 52.126 48.2212 50.9496 48.0301C49.7732 47.839 48.6799 47.3033 47.8079 46.4908C46.936 45.6783 46.3246 44.6254 46.0511 43.4654C45.8692 42.6954 45.8408 41.8971 45.9675 41.1162C46.0943 40.3352 46.3736 39.5868 46.7896 38.9138C47.2056 38.2409 47.7501 37.6564 48.392 37.1939C49.034 36.7314 49.7607 36.3999 50.5308 36.2183Z" fill="white"/>
<path d="M69.2826 41.0312C69.2832 37.3844 68.0622 33.8426 65.8145 30.9709C63.5667 28.0992 60.4218 26.0632 56.8817 25.1879C53.3415 24.3126 49.6102 24.6484 46.2832 26.1417C42.9562 27.635 40.2253 30.1997 38.5264 33.4265C38.9078 35.3645 39.4945 37.2563 40.2765 39.0701C40.8193 37.0389 41.8873 35.1864 43.3732 33.699C44.8591 32.2116 46.7105 31.1417 48.7411 30.5968C50.7717 30.052 52.91 30.0514 54.9409 30.5952C56.9718 31.139 58.8238 32.208 60.3104 33.6947C61.7971 35.1813 62.8661 37.0332 63.4099 39.0642C63.9537 41.0951 63.9531 43.2334 63.4083 45.264C62.8634 47.2946 61.7935 49.146 60.3061 50.6319C58.8187 52.1178 56.9662 53.1858 54.935 53.7286C56.7488 54.5106 58.6406 55.0973 60.5786 55.4787C63.2083 54.0943 65.4099 52.018 66.9459 49.4738C68.4818 46.9296 69.2936 44.0142 69.2937 41.0423" fill="white"/>
<path d="M94.0001 27.9985C93.9994 22.1202 92.1487 16.3912 88.7104 11.6233C85.2721 6.85546 80.4205 3.29053 74.8432 1.43371C69.2658 -0.423116 63.2456 -0.477658 57.6355 1.27781C52.0254 3.03328 47.1101 6.50972 43.5859 11.2145C49.0544 9.26088 54.9652 8.9 60.6308 10.1739C66.2963 11.4477 71.4838 14.304 75.5897 18.4104C79.6956 22.5168 82.5513 27.7045 83.8245 33.3702C85.0977 39.0359 84.7362 44.9467 82.7819 50.415C86.267 47.8099 89.0958 44.4274 91.0433 40.5366C92.9909 36.6457 94.0033 32.354 94.0001 28.003" fill="white"/>
</svg>
